<?xml version="1.0" encoding="utf-8"?>
<!-- Generator: Adobe Illustrator 27.3.1, SVG Export Plug-In . SVG Version: 6.00 Build 0)  -->
<svg version="1.1" id="Ebene_1" xmlns="http://www.w3.org/2000/svg" xmlns:xlink="http://www.w3.org/1999/xlink" x="0px" y="0px"
	 viewBox="0 0 640 512" style="enable-background:new 0 0 640 512;" xml:space="preserve">
<path d="M128,544c0-17.7,14.3-32,32-32h320c17.7,0,32,14.3,32,32s-14.3,32-32,32H160C142.3,576,128,561.7,128,544z M201.4,329.4
	c12.5-12.5,32.8-12.5,45.3,0l41.3,41.3V141.2l-41.4,41.4c-12.5,12.5-32.8,12.5-45.3,0s-12.5-32.8,0-45.3l96-96
	c12.5-12.5,32.8-12.5,45.3,0l96,96c12.5,12.5,12.5,32.8,0,45.3s-32.8,12.5-45.3,0L352,141.3v229.5l41.4-41.4
	c12.5-12.5,32.8-12.5,45.3,0s12.5,32.8,0,45.3l-96,96c-12.5,12.5-32.8,12.5-45.3,0l-96-96C188.9,362.2,188.9,341.9,201.4,329.4
	L201.4,329.4z M160-64h320c17.7,0,32,14.3,32,32S497.7,0,480,0H160c-17.7,0-32-14.3-32-32S142.3-64,160-64z"/>
</svg>
